<svg width="32" height="32" viewBox="0 0 32 32" fill="none" xmlns="http://www.w3.org/2000/svg">
<circle cx="16" cy="16" r="15" stroke="white" stroke-width="2"/>
<path d="M14.8961 18.056C14.8961 17.444 15.0321 16.9397 15.3041 16.543C15.5874 16.135 15.9954 15.693 16.5281 15.217C16.9361 14.8543 17.2364 14.5427 17.4291 14.282C17.6331 14.01 17.7351 13.704 17.7351 13.364C17.7351 12.888 17.5424 12.5027 17.1571 12.208C16.7717 11.9133 16.2561 11.766 15.6101 11.766C14.3861 11.766 13.4624 12.2023 12.8391 13.075L11.1901 12.004C11.6774 11.3353 12.3064 10.8253 13.0771 10.474C13.8477 10.1113 14.7544 9.93 15.7971 9.93C17.0664 9.93 18.0751 10.2077 18.8231 10.763C19.5824 11.307 19.9621 12.0607 19.9621 13.024C19.9621 13.4887 19.8827 13.8967 19.7241 14.248C19.5767 14.5993 19.3954 14.8997 19.1801 15.149C18.9647 15.387 18.6814 15.6647 18.3301 15.982C17.8994 16.3673 17.5764 16.7073 17.3611 17.002C17.1571 17.2967 17.0551 17.648 17.0551 18.056H14.8961ZM15.9841 22.119C15.5874 22.119 15.2587 21.9943 14.9981 21.745C14.7487 21.4843 14.6241 21.167 14.6241 20.793C14.6241 20.419 14.7487 20.1073 14.9981 19.858C15.2587 19.6087 15.5874 19.484 15.9841 19.484C16.3694 19.484 16.6867 19.6087 16.9361 19.858C17.1967 20.1073 17.3271 20.419 17.3271 20.793C17.3271 21.167 17.1967 21.4843 16.9361 21.745C16.6867 21.9943 16.3694 22.119 15.9841 22.119Z" fill="white"/>
</svg>
