<svg width="16" height="16" viewBox="0 0 16 16" fill="none" xmlns="http://www.w3.org/2000/svg">
<path fill-rule="evenodd" clip-rule="evenodd" d="M11.5179 6.50896C11.5179 9.27533 9.27535 11.5179 6.50898 11.5179C3.7426 11.5179 1.50001 9.27533 1.5 6.50896C1.49999 3.74259 3.74258 1.5 6.50896 1.5C9.27533 1.5 11.5179 3.74259 11.5179 6.50896ZM10.3693 11.7502C9.28925 12.547 7.95411 13.0179 6.50898 13.0179C2.91418 13.0179 7.57549e-06 10.1038 0 6.50896C-7.57546e-06 2.91416 2.91415 0 6.50895 0C10.1038 0 13.0179 2.91416 13.0179 6.50896C13.0179 7.95417 12.5469 9.28937 11.7501 10.3694L15.7139 14.3333C16.0952 14.7146 16.0952 15.3327 15.7139 15.714C15.3326 16.0953 14.7144 16.0953 14.3331 15.714L10.3693 11.7502Z" fill="#008EC6"/>
</svg>
